<?xml version="1.0" encoding="utf-8"?>
<!-- Generator: Adobe Illustrator 27.0.0, SVG Export Plug-In . SVG Version: 6.00 Build 0)  -->
<svg version="1.1" id="Слой_1" xmlns="http://www.w3.org/2000/svg" xmlns:xlink="http://www.w3.org/1999/xlink" x="0px" y="0px"
	 viewBox="0 0 595.28 841.89" style="enable-background:new 0 0 595.28 841.89;" xml:space="preserve">
<style type="text/css">
	.st0{fill:none;stroke:#000000;stroke-miterlimit:10;}
</style>
<g>
	<path class="st0" d="M505.72,567.71c-12.59,0-24.4-8.08-31.44-16.06c-6.71-7.61-11.65-16.69-16.43-25.48
		c-2.08-3.82-4.22-7.77-6.49-11.54c-9.42-15.71-19.69-25.02-31.39-28.45c-13.31-3.9-27.31,0.14-40.86,4.04
		c-1.26,0.36-2.52,0.73-3.77,1.08c-13.72,3.88-31.18,7.24-44.46-1.42c-3.86-2.51-7.08-5.91-10.2-9.2c-2.66-2.8-5.4-5.69-8.52-8.02
		c-13.82-10.31-32.23-8.01-41.98-5.73c-7.97,1.87-15.78,4.8-23.34,7.64c-5.95,2.24-12.11,4.55-18.32,6.33
		c-17.05,4.9-31.93,4.34-43.03-1.62c-7.32-3.93-13.08-11.11-15.42-19.21c-1.87-6.48-1.26-12.93,1.7-18.16
		c4.45-7.83,13.84-12.97,25.14-13.74c8.5-0.58,17.04,1.14,25.29,2.8c1.36,0.27,2.71,0.55,4.07,0.81
		c14.05,2.73,32.38,5.22,49.55,0.22c17.48-5.08,30.9-18.04,34.17-33.02c1.89-8.63-0.22-18.31-5.64-25.9
		c-4.63-6.49-11.05-10.51-18.08-11.33c-10.22-1.18-19.84,3.83-29.15,8.68c-1.53,0.8-3.05,1.59-4.57,2.35
		c-10.09,5.07-24.27,9.54-34.54,2.03c-12.43-9.1-8.88-28.38-7.5-34.08c0.71-2.91,1.57-5.86,2.4-8.72
		c2.58-8.86,5.25-18.02,3.75-27.11c-2.04-12.38-12.23-23.59-25.96-28.55c-11.09-4.01-24.2-4.44-40.07-1.3
		c-24.96,4.93-48.24,16.43-67.32,33.27l-0.33-0.38c19.15-16.89,42.51-28.44,67.55-33.38c15.97-3.16,29.16-2.72,40.34,1.32
		c13.9,5.03,24.21,16.39,26.28,28.94c1.51,9.2-1.17,18.42-3.77,27.33c-0.83,2.85-1.69,5.8-2.39,8.7
		c-1.37,5.62-4.88,24.64,7.31,33.55c10.06,7.36,24.05,2.94,34.02-2.07c1.51-0.76,3.03-1.55,4.56-2.35
		c9.37-4.89,19.06-9.94,29.43-8.73c7.17,0.83,13.71,4.93,18.42,11.54c5.5,7.7,7.63,17.53,5.72,26.3
		c-3.31,15.15-16.86,28.25-34.52,33.39c-17.28,5.02-35.68,2.53-49.79-0.21c-1.36-0.26-2.71-0.54-4.07-0.81
		c-8.22-1.66-16.72-3.37-25.15-2.79c-11.13,0.76-20.37,5.8-24.74,13.49c-2.9,5.11-3.49,11.42-1.66,17.77
		c2.3,7.97,7.97,15.04,15.18,18.91c10.98,5.9,25.73,6.44,42.66,1.58c6.19-1.78,12.34-4.09,18.28-6.32
		c7.57-2.84,15.39-5.78,23.4-7.66c9.83-2.31,28.41-4.62,42.39,5.81c3.16,2.35,5.92,5.26,8.59,8.08c3.1,3.27,6.3,6.64,10.11,9.12
		c13.12,8.55,30.43,5.22,44.05,1.36c1.25-0.35,2.51-0.72,3.77-1.08c13.61-3.92,27.69-7.98,41.13-4.04
		c11.83,3.47,22.19,12.85,31.68,28.67c2.27,3.78,4.42,7.74,6.5,11.56c4.76,8.76,9.69,17.82,16.36,25.39
		c8.3,9.41,23.3,18.97,38.27,14.94l0.13,0.48C510.6,567.4,508.15,567.7,505.72,567.71z"/>
</g>
</svg>
